<?xml version="1.0" encoding="UTF-8" standalone="no"?>
<svg width="512" height="512" viewBox="0 0 512 512" fill="none" xmlns="http://www.w3.org/2000/svg">
  <!-- Background -->
  <rect width="512" height="512" rx="100" fill="url(#paint0_linear)"/>
  
  <!-- Keyhole -->
  <path d="M256 140C214.026 140 180 174.026 180 216V256H200V216C200 185.072 225.072 160 256 160C286.928 160 312 185.072 312 216V256H332V216C332 174.026 297.974 140 256 140Z" fill="white"/>
  
  <!-- Leaking droplet  -->
  <path d="M256 452C256 452 226 412 226 392C226 372 256 372 256 372C256 372 286 372 286 392C286 412 256 452 256 452Z"
        fill="#FF5252"
        transform="scale(1, -1) translate(0, -850)" />

  <!-- Lock body -->
  <rect x="160" y="256" width="192" height="136" rx="16" fill="white"/>
  
  <!-- Gradient definition -->
  <defs>
    <linearGradient id="paint0_linear" x1="0" y1="0" x2="512" y2="512" gradientUnits="userSpaceOnUse">
      <stop stop-color="#6200EA"/>
      <stop offset="1" stop-color="#0091EA"/>
    </linearGradient>
  </defs>
</svg>
